<svg class="nav_icon" viewBox="0 0 512 512" xmlns="http://www.w3.org/2000/svg" xmlns:svg="http://www.w3.org/2000/svg" xmlns:xlink="http://www.w3.org/1999/xlink">
 <linearGradient id="a" x1="0.23974" y1="0.46043" x2="0.68773" y2="0.55598">
  <stop offset="0" stop-color="#919191"/>
  <stop offset="1" stop-color="#fff"/>
 </linearGradient>
 <defs>
  <symbol viewBox="0 0 24 24" id="svg_15" xmlns="http://www.w3.org/2000/svg">
   <title>GitHub icon</title>
   <path id="svg_1" class="background" d="m12,0.297c-6.63,0 -12,5.373 -12,12c0,5.303 3.438,9.8 8.205,11.385c0.6,0.113 0.82,-0.258 0.82,-0.577c0,-0.285 -0.01,-1.04 -0.015,-2.04c-3.338,0.724 -4.042,-1.61 -4.042,-1.61c-0.546,-1.385 -1.335,-1.755 -1.335,-1.755c-1.087,-0.744 0.084,-0.729 0.084,-0.729c1.205,0.084 1.838,1.236 1.838,1.236c1.07,1.835 2.809,1.305 3.495,0.998c0.108,-0.776 0.417,-1.305 0.76,-1.605c-2.665,-0.3 -5.466,-1.332 -5.466,-5.93c0,-1.31 0.465,-2.38 1.235,-3.22c-0.135,-0.303 -0.54,-1.523 0.105,-3.176c0,0 1.005,-0.322 3.3,1.23c0.96,-0.267 1.98,-0.399 3,-0.405c1.02,0.006 2.04,0.138 3,0.405c2.28,-1.552 3.285,-1.23 3.285,-1.23c0.645,1.653 0.24,2.873 0.12,3.176c0.765,0.84 1.23,1.91 1.23,3.22c0,4.61 -2.805,5.625 -5.475,5.92c0.42,0.36 0.81,1.096 0.81,2.22c0,1.606 -0.015,2.896 -0.015,3.286c0,0.315 0.21,0.69 0.825,0.57c4.801,-1.574 8.236,-6.074 8.236,-11.369c0,-6.627 -5.373,-12 -12,-12"/>
  </symbol>
 </defs>
 <linearGradient id="b" x1="0.26455" y1="0.42398" x2="0.67192" y2="0.51923">
  <stop offset="0" stop-color="#900"/>
  <stop offset="1" stop-color="#e80000"/>
 </linearGradient>
 <g class="layer">
  <title>Layer 1</title>
  <g id="svg_17"/>
  <g id="svg_13">
   <g id="svg_21">
    <use id="svg_16" xlink:href="#svg_15" transform="matrix(0.9916874146251364,0,0,0.9657585742280046,-3641.880121723309,1187.4466580567528) " y="-1227.40302" x="3674.95311"/>
    <g id="svg_20">
     <path opacity="0.3" d="m135.58424,251.99733c-0.08162,0.30782 -0.0834,0.63862 -0.01463,0.98779c0,0 1.11212,6.95089 -0.15039,10.04417l-53.67856,131.41321l0.004,0.00168c-3.83098,9.65239 1.30288,20.42872 11.53997,24.13598c10.23709,3.70684 21.71673,-1.05421 25.74246,-10.63558l0.00488,0.00208l53.67856,-131.41364c1.04957,-2.57077 7.03559,-7.55109 7.03559,-7.55109c0.30032,-0.21552 0.53321,-0.46278 0.69203,-0.74263l0.02618,-0.05095c0.02884,-0.05514 0.06255,-0.10777 0.08562,-0.16498c1.38406,-3.38857 -7.54352,-9.7756 -19.94098,-14.26431c-12.3979,-4.48914 -23.57012,-5.38127 -24.95418,-1.99271c-0.0235,0.05722 -0.03681,0.11737 -0.05412,0.17626l-0.01641,0.05471l-0.00002,0z" id="svg_2" fill="black"/>
     <path fill="url(#a)" d="m133.70025,254.84837c-0.08206,0.30782 -0.08428,0.63862 -0.01463,0.98779c0,0 1.11256,6.95089 -0.15083,10.04417l-53.679,131.41279l0.00488,0.00168c-3.83054,9.65239 1.30288,20.42872 11.53997,24.13598c10.23621,3.70684 21.71673,-1.05421 25.74246,-10.63558l0.00488,0.00208l53.67856,-131.41364c1.04913,-2.57077 7.03559,-7.55109 7.03559,-7.55109c0.30032,-0.21552 0.53321,-0.46236 0.69203,-0.74263l0.02572,-0.05095c0.02884,-0.05471 0.06255,-0.10777 0.08562,-0.16498c1.38406,-3.38857 -7.54352,-9.77518 -19.94054,-14.26431c-12.3979,-4.48914 -23.57012,-5.38127 -24.95418,-1.99271c-0.0235,0.05722 -0.03681,0.11737 -0.05412,0.17626l-0.01641,0.05514z" id="svg_3"/>
     <path fill="url(#b)" d="m150.72303,316.87411l-38.70996,94.76798l0.02528,0.00877c-2.85505,6.79217 -11.16379,10.3261 -18.53431,7.65718c-7.37052,-2.66892 -11.35986,-10.65563 -8.645,-17.49917l24.73458,-60.55484s3.08928,-4.6917 9.15469,-8.02974c6.06543,-3.33761 11.06752,-2.63343 17.8028,-5.45187c6.73483,-2.81844 14.17189,-10.8983 14.17189,-10.8983l0.00003,0z" id="svg_4"/>
     <ellipse transform="matrix(0.4140364806795653,0.1499386324460624,-0.15924885734130836,0.38983051264739793,62.503114731942894,421.2747142056614) " fill="#333" cx="58.56888" cy="-423.49283" rx="33.648" ry="8.85" id="svg_5"/>
     <path opacity="0.3" fill="#FFF" d="m131.79983,253.53855s1.09615,6.99057 -0.15083,10.04417l-53.67856,131.41321l0.00488,0.00168c-3.83054,9.65239 1.30288,20.42872 11.53997,24.13598a20.00797,18.83824 0 0 0 5.39602,1.17867c-6.90073,-4.88759 -9.86137,-13.62945 -6.69534,-21.60614l-0.00488,-0.00168l52.61347,-128.80652s-7.16158,-6.33147 -9.02473,-16.35935l0,-0.00002z" id="svg_6"/>
     <g fill="#FFF" id="svg_7">
      <circle opacity="0.5" cx="114.51783" cy="338.31123" r="1.46433" id="svg_8"/>
      <circle opacity="0.5" cx="124.71322" cy="348.92885" r="2.20738" id="svg_9"/>
      <circle opacity="0.5" cx="109.14931" cy="361.55588" r="4.14119" id="svg_10"/>
      <circle opacity="0.5" cx="102.02765" cy="369.21431" r="2.20779" id="svg_11"/>
      <circle opacity="0.5" cx="111.36778" cy="385.59246" r="1.46433" id="svg_12"/>
     </g>
    </g>
    <ellipse fill="#ffffff" stroke-width="null" stroke-dasharray="null" stroke-linejoin="null" stroke-linecap="null" cx="98.4176" cy="358.31835" rx="19.5852" ry="11.47611" id="svg_33"/>
    <ellipse fill="#ffffff" stroke-width="null" stroke-dasharray="null" stroke-linejoin="null" stroke-linecap="null" cx="155.52596" cy="366.20328" rx="4.18151" ry="4.22214" id="svg_34" transform="matrix(-1.2491505673027772,1.1432942105576778,-1.1432942105576778,-1.2491505673027772,692.5235514269363,635.0062816038663) "/>
    <ellipse class="background" fill="#050303" stroke-width="null" stroke-dasharray="null" stroke-linejoin="null" stroke-linecap="null" cx="151.243" cy="123.89316" rx="15.24032" ry="12.38276" id="svg_35"/>
    <ellipse class="background" fill="#050303" stroke-width="null" stroke-dasharray="null" stroke-linejoin="null" stroke-linecap="null" cx="385.56294" cy="149.6112" rx="7.62016" ry="6.66764" id="svg_36"/>
    <ellipse fill="#050303" stroke-width="null" stroke-dasharray="null" stroke-linejoin="null" stroke-linecap="null" cx="557.96908" cy="195.33217" rx="0" ry="0" id="svg_37"/>
    <ellipse fill="#050303" stroke-width="null" stroke-dasharray="null" stroke-linejoin="null" stroke-linecap="null" cx="390.32554" cy="130.5608" rx="0" ry="0" id="svg_38"/>
    <ellipse fill="#050303" stroke-width="null" stroke-dasharray="null" stroke-linejoin="null" stroke-linecap="null" cx="380.80034" cy="133.41836" rx="0" ry="0" id="svg_39"/>
    <ellipse fill="#d581db" stroke-width="null" stroke-dasharray="null" stroke-linejoin="null" stroke-linecap="null" cx="303.76529" cy="275.70106" rx="0" ry="0" id="svg_49"/>
   </g>
  </g>
 </g>
</svg>